<svg width="812" height="297" viewBox="0 0 812 297" fill="none" xmlns="http://www.w3.org/2000/svg">
<path fill-rule="evenodd" clip-rule="evenodd" d="M165.677 45.0004C166.077 44.9004 175.077 61.5005 185.777 81.7005C196.477 101.9 214.977 137.3 227.077 160.2C239.077 183.2 248.877 202.2 248.877 202.5C248.877 202.8 243.977 203 226.877 203L221.577 192.7C218.577 187.1 204.977 161.2 191.277 135.2C172.677 100 166.077 88.3004 165.377 89.3004C164.777 90.0004 160.577 98.2004 155.877 107.3C151.177 116.5 147.177 124 146.877 124C146.577 124 143.877 120.8 140.677 116.8C137.577 112.8 134.777 108.8 134.377 108C133.977 107.1 139.477 95.4004 149.077 77.0005C157.477 60.8004 164.477 47.0004 164.677 46.3004C164.877 45.6004 165.277 45.0004 165.677 45.0004ZM111.277 148.9L114.077 152.2C115.577 154 118.477 157.8 124.277 166.2L105.277 203L94.5773 202.9C88.0773 202.9 83.8773 202.5 84.0773 201.9C84.1773 201.4 90.3773 189.2 97.7773 174.9L111.277 148.9Z" fill="#339EA6"/>
<path d="M75.2773 97.6004C79.6773 97.8004 86.4773 98.9005 90.2773 100C94.1773 101.1 100.677 103.8 104.777 106C108.977 108.2 115.477 112.6 119.277 115.7C123.077 118.8 129.977 126 134.777 131.7C139.477 137.4 149.277 150.4 156.577 160.7C163.877 170.9 173.677 184.5 178.277 190.8C182.977 197.2 189.577 205.5 193.077 209.3C196.477 213.1 202.677 218.9 206.777 222.2C210.977 225.4 216.977 229.4 220.277 231.1C223.577 232.7 229.677 234.9 233.777 236C237.977 237 243.677 237.9 246.577 237.9C249.477 237.9 255.077 237.1 259.077 236.2C263.077 235.3 269.877 232.8 274.277 230.5C279.177 228 284.477 224.2 287.877 220.9C290.877 217.8 294.977 212.6 296.977 209.3C298.977 206 301.577 200.4 302.777 196.8C303.977 193.3 305.477 186.5 306.077 181.8C306.877 175.6 306.777 171.2 305.977 165.3C305.277 160.9 303.777 154.4 302.477 150.8C301.277 147.3 298.577 141.9 296.677 138.8C294.677 135.8 290.377 130.9 287.177 127.8C283.977 124.8 278.377 120.8 274.777 119.1C271.277 117.3 265.877 115.1 262.777 114.3C259.777 113.5 253.977 112.9 249.777 112.9C245.677 112.9 240.077 113.5 237.277 114.2C234.577 114.9 229.577 116.9 226.277 118.7C222.977 120.4 220.277 121.7 220.177 121.6C220.177 121.5 218.677 118.8 216.977 115.6C215.177 112.3 214.177 109.3 214.577 108.6C214.977 108 218.877 105.8 223.277 103.8C227.677 101.7 233.377 99.6005 235.777 99.0005C238.277 98.4005 243.277 97.7004 246.777 97.3004C250.877 96.9004 256.277 97.3005 261.277 98.2005C265.677 99.0005 271.977 100.7 275.277 101.9C278.577 103.2 284.477 106.3 288.277 108.9C292.177 111.5 297.977 116.5 301.177 120C304.377 123.5 308.777 129.5 310.877 133.3C313.077 137.2 315.977 143.8 317.377 148.1C318.677 152.4 320.277 159.8 320.777 164.6C321.377 170.2 321.377 176.9 320.677 183.3C320.177 188.8 318.577 196.7 317.177 200.8C315.777 205 313.177 211 311.277 214.3C309.477 217.6 305.877 222.9 303.377 226.1C300.877 229.3 296.277 233.9 293.077 236.4C289.877 238.9 283.677 242.7 279.277 244.9C274.877 247 268.377 249.4 264.777 250.3C261.077 251.2 253.577 251.8 247.277 251.8C239.377 251.9 234.077 251.3 228.277 249.8C223.877 248.7 216.677 245.9 212.277 243.6C207.877 241.2 201.177 236.8 197.277 233.8C193.477 230.7 187.177 224.8 183.277 220.8C179.477 216.7 173.377 209.5 169.777 204.8C166.077 200.2 158.277 189.4 152.277 180.8C146.377 172.3 138.077 160.8 133.877 155.3C129.777 149.8 123.677 142.3 120.377 138.7C117.077 135 111.377 129.7 107.777 126.8C104.277 123.9 98.7773 120.3 95.5773 118.7C92.3773 117.1 87.2773 115.2 84.0773 114.3C80.8773 113.5 74.4773 112.8 69.7773 112.9C63.7773 112.9 59.4773 113.5 54.7773 115.1C51.1773 116.3 45.6773 118.9 42.4773 120.8C39.2773 122.8 33.9773 127.2 30.6773 130.6C27.4773 134 23.3773 139.7 21.6773 143.1C19.9773 146.5 17.7773 152.7 16.6773 156.8C15.5773 161.4 14.7773 167.8 14.7773 173.1C14.7773 177.9 15.5773 185.1 16.4773 189.1C17.2773 193.1 19.4773 199.5 21.2773 203.3C23.0773 207.2 26.3773 212.7 28.6773 215.6C30.9773 218.5 35.1773 222.6 38.0773 224.8C40.9773 226.9 46.2773 230.1 49.7773 231.9C53.3773 233.7 59.4773 235.8 63.2773 236.6C67.4773 237.4 72.9773 237.8 76.7773 237.5C80.3773 237.3 86.4773 236 90.2773 234.7C94.1773 233.3 100.677 230 104.777 227.3C108.877 224.6 116.077 218.7 120.677 214.3C125.377 209.9 125.877 210 127.377 208.5L135.877 217.5C134.877 218.5 132.977 220.7 126.777 226.9C122.177 231.5 115.177 237.5 111.277 240C107.477 242.6 102.077 245.6 99.2773 246.8C96.5773 248 91.7773 249.6 88.5773 250.4C85.3773 251.2 78.4773 251.9 73.0773 251.9C66.2773 251.9 60.8773 251.3 55.2773 249.9C50.8773 248.7 43.7773 245.9 39.4773 243.6C35.1773 241.2 28.4773 236.4 24.5773 232.8C20.7773 229.3 15.6773 223.4 13.3773 219.8C11.0773 216.3 7.87732 210.4 6.37732 206.8C4.77732 203.3 2.67732 196.1 1.57732 190.8C-0.0226802 183.2 -0.22268 179 0.17732 169.3C0.47732 162.7 1.47732 154.6 2.37732 151.3C3.27732 148 5.47732 142.2 7.27732 138.3C9.07732 134.5 12.5773 128.5 15.1773 125.1C17.7773 121.7 22.8773 116.4 26.5773 113.3C30.2773 110.3 36.5773 106.2 40.5773 104.3C44.5773 102.4 50.6773 100.2 54.0773 99.4004C57.4773 98.6004 61.8773 97.8005 63.7773 97.5005C65.7773 97.3005 70.8773 97.3004 75.2773 97.6004Z" fill="#339EA6"/>
<path d="M361.55 19.3636V79H352.552V19.3636H361.55ZM440.828 19.3636V79H432.558L402.245 35.2628H401.691V79H392.693V19.3636H401.022L431.364 63.1591H431.917V19.3636H440.828ZM471.993 79V19.3636H508.975V27.1094H480.991V45.2798H506.325V52.9964H480.991V79H471.993ZM547.078 19.3636V79H538.08V19.3636H547.078ZM626.356 19.3636V79H618.086L587.773 35.2628H587.219V79H578.222V19.3636H586.55L616.892 63.1591H617.445V19.3636H626.356ZM666.519 19.3636V79H657.521V19.3636H666.519ZM694.722 27.1094V19.3636H740.876V27.1094H722.269V79H713.3V27.1094H694.722ZM769.115 79V19.3636H806.504V27.1094H778.113V45.2798H804.553V52.9964H778.113V71.2543H806.854V79H769.115ZM352.552 178V118.364H373.809C378.449 118.364 382.292 119.208 385.34 120.897C388.388 122.586 390.669 124.896 392.183 127.827C393.697 130.739 394.455 134.02 394.455 137.67C394.455 141.339 393.688 144.639 392.154 147.57C390.64 150.482 388.349 152.792 385.282 154.501C382.234 156.19 378.4 157.034 373.78 157.034H359.162V149.405H372.964C375.896 149.405 378.274 148.9 380.099 147.891C381.924 146.862 383.263 145.464 384.117 143.697C384.971 141.931 385.398 139.922 385.398 137.67C385.398 135.418 384.971 133.418 384.117 131.671C383.263 129.924 381.914 128.555 380.07 127.565C378.245 126.575 375.838 126.08 372.848 126.08H361.55V178H352.552ZM474.846 148.182C474.846 154.549 473.682 160.024 471.352 164.605C469.022 169.167 465.829 172.681 461.772 175.146C457.734 177.592 453.143 178.815 447.998 178.815C442.834 178.815 438.224 177.592 434.167 175.146C430.129 172.681 426.945 169.157 424.615 164.576C422.286 159.995 421.121 154.53 421.121 148.182C421.121 141.814 422.286 136.35 424.615 131.788C426.945 127.206 430.129 123.692 434.167 121.246C438.224 118.781 442.834 117.548 447.998 117.548C453.143 117.548 457.734 118.781 461.772 121.246C465.829 123.692 469.022 127.206 471.352 131.788C473.682 136.35 474.846 141.814 474.846 148.182ZM465.936 148.182C465.936 143.329 465.15 139.242 463.577 135.923C462.024 132.584 459.889 130.06 457.171 128.352C454.472 126.624 451.415 125.76 447.998 125.76C444.562 125.76 441.495 126.624 438.797 128.352C436.098 130.06 433.963 132.584 432.39 135.923C430.837 139.242 430.061 143.329 430.061 148.182C430.061 153.035 430.837 157.131 432.39 160.47C433.963 163.79 436.098 166.313 438.797 168.041C441.495 169.75 444.562 170.604 447.998 170.604C451.415 170.604 454.472 169.75 457.171 168.041C459.889 166.313 462.024 163.79 463.577 160.47C465.15 157.131 465.936 153.035 465.936 148.182ZM513.102 118.364V178H504.105V118.364H513.102ZM592.38 118.364V178H584.11L553.797 134.263H553.244V178H544.246V118.364H552.574L582.917 162.159H583.47V118.364H592.38ZM620.605 126.109V118.364H666.759V126.109H648.152V178H639.183V126.109H620.605ZM402.084 236.757H392.999C392.649 234.816 391.999 233.107 391.048 231.632C390.096 230.157 388.932 228.905 387.553 227.876C386.175 226.847 384.632 226.07 382.923 225.546C381.234 225.022 379.439 224.76 377.536 224.76C374.1 224.76 371.023 225.624 368.305 227.352C365.607 229.079 363.472 231.613 361.899 234.952C360.346 238.291 359.57 242.367 359.57 247.182C359.57 252.035 360.346 256.131 361.899 259.47C363.472 262.809 365.617 265.333 368.335 267.041C371.052 268.75 374.11 269.604 377.507 269.604C379.39 269.604 381.176 269.351 382.865 268.847C384.573 268.322 386.117 267.556 387.495 266.546C388.873 265.537 390.038 264.304 390.989 262.848C391.96 261.373 392.63 259.684 392.999 257.781L402.084 257.81C401.598 260.742 400.657 263.44 399.259 265.906C397.881 268.352 396.105 270.468 393.93 272.254C391.776 274.02 389.31 275.389 386.534 276.359C383.758 277.33 380.73 277.815 377.449 277.815C372.285 277.815 367.684 276.592 363.646 274.146C359.608 271.681 356.425 268.157 354.095 263.576C351.785 258.995 350.63 253.53 350.63 247.182C350.63 240.814 351.795 235.35 354.124 230.788C356.454 226.206 359.638 222.692 363.675 220.246C367.713 217.781 372.304 216.548 377.449 216.548C380.613 216.548 383.564 217.004 386.301 217.917C389.058 218.81 391.533 220.13 393.727 221.877C395.92 223.605 397.735 225.721 399.172 228.225C400.608 230.71 401.579 233.554 402.084 236.757ZM435.528 277H425.977L447.438 217.364H457.833L479.294 277H469.743L452.883 228.196H452.417L435.528 277ZM437.129 253.646H468.112V261.217H437.129V253.646ZM505.946 277V217.364H527.203C531.843 217.364 535.687 218.208 538.735 219.897C541.782 221.586 544.063 223.896 545.578 226.827C547.092 229.739 547.849 233.02 547.849 236.67C547.849 240.339 547.082 243.639 545.549 246.57C544.034 249.482 541.744 251.792 538.676 253.501C535.629 255.19 531.795 256.034 527.174 256.034H512.556V248.405H526.359C529.29 248.405 531.668 247.9 533.493 246.891C535.318 245.862 536.657 244.464 537.512 242.697C538.366 240.931 538.793 238.922 538.793 236.67C538.793 234.418 538.366 232.418 537.512 230.671C536.657 228.924 535.308 227.555 533.464 226.565C531.639 225.575 529.232 225.08 526.242 225.08H514.944V277H505.946ZM585.435 217.364V277H576.437V217.364H585.435ZM613.638 225.109V217.364H659.792V225.109H641.185V277H632.216V225.109H613.638ZM686.022 277H676.471L697.932 217.364H708.327L729.788 277H720.237L703.377 228.196H702.911L686.022 277ZM687.623 253.646H718.606V261.217H687.623V253.646ZM756.44 277V217.364H765.438V269.254H792.461V277H756.44Z" fill="#e8eff5"/>
</svg>
